<?xml version="1.0" encoding="utf-8"?>
<!-- Generator: Adobe Illustrator 24.2.3, SVG Export Plug-In . SVG Version: 6.00 Build 0)  -->
<svg version="1.1" id="Layer_1" xmlns="http://www.w3.org/2000/svg" xmlns:xlink="http://www.w3.org/1999/xlink" x="0px" y="0px"
	 viewBox="0 0 700 700" style="enable-background:new 0 0 700 700;" xml:space="preserve">
<style type="text/css">
	.st0{fill:#FFFFFF;}
</style>
<path d="M656.7,698.9H42.3C18.9,698.9,0,680,0,656.7V42.3C0,18.9,18.9,0,42.3,0h614.4c23.3,0,42.3,18.9,42.3,42.3v614.4
	C698.9,680,680,698.9,656.7,698.9z"/>
<g>
	<path class="st0" d="M498.9,213c-0.9-4.6-5.5-7.6-10.1-6.7c-13.3,2.6-23.2,7.4-29.7,11.4c-4.5-8.7-10.6-16.9-18.9-24.4
		c-3.5-3.2-8.9-2.8-12.1,0.7c-3.1,3.5-2.8,8.9,0.7,12.1c23.1,20.6,29.3,52.2,19.4,99.2c-6.5,31.1-6.2,46.8-6,58.3c0,2.5,0.1,4.8,0,7
		c-0.7,27.3-0.8,30.8-12.4,43.3l-0.9,0.9c-38.7,41.8-49,45.5-50.3,45.8c-0.8,0-3.7-1.4-5.9-5.6c-2.2-4.2-6.1-16.2,6.5-35.7
		c9.3-14.5,13.8-24.6,14-31.8c0.2-8.1-3.8-14.6-8.1-21.4c-5.5-8.9-12.4-19.9-14.7-39.8c-0.5-4.7-4.8-8.1-9.5-7.5
		c-4.7,0.5-8.1,4.8-7.5,9.5c1.9,16.3,6.4,27.7,11,36.4c-29.5,6.6-49.6,26.7-62.9,62.5c-14.1,38-55.8,134.6-67.3,148.4
		c-2.6,3.1-5.5,4.7-8.6,4.9c-3.4,0.2-6.3-1.3-6.9-1.9c-6.3-6.2,5.3-34.1,17.6-63.6c20.4-49,31.1-114.6,36.2-146.2
		c1.3-8.2,2.4-14.6,3-17.4l0.1-0.6c2.6-11,2.6-11,32.5-70.7l16.5-32.9c49.8-99.6,96.9-123.9,152.3-129.8c4.7-0.5,8.1-4.7,7.6-9.4
		c-0.5-4.7-4.7-8.1-9.4-7.6c-72.2,7.6-120.2,47.9-165.8,139.1l-16.5,32.9c-30.8,61.4-30.8,61.4-33.9,74.4l-0.1,0.6
		c-0.8,3.4-1.8,9.4-3.3,18.6c-5,30.9-15.5,95.2-35.1,142.3c-18.3,43.9-28.3,68-13.8,82.4c3.3,3.2,9.9,6.8,18.2,6.8
		c0.5,0,0.9,0,1.4,0c5.6-0.3,13.9-2.4,21.1-11.1c12.4-14.9,45.8-92,62.8-134.5c19.7,40,60.8,114,67.3,124.7
		c6,9.9,13.5,22.3,27.3,22.3c8.1,0,15.6-3.8,20.6-10.6c6.3-8.6,7.6-20.5,3.5-33.5c-5.4-17.3-18.4-51.3-33.1-84.8
		c9.6-6.9,23.7-19.8,45.7-43.6l0.9-0.9c16-17.2,16.2-25.9,16.9-54.5c0.1-2.4,0-4.9,0-7.7c-0.2-10.7-0.4-25.3,5.6-54.5
		c4.5-21.5,8.1-49.2,0.6-74.9c4.6-3.1,13.5-8.1,26.5-10.7C496.8,222.1,499.8,217.6,498.9,213L498.9,213z M412.7,559.8
		c2.4,7.5,2,14.2-1,18.3c-1.7,2.3-4.1,3.6-6.8,3.6c-3.1,0-6.3-3.5-12.6-14c-7.3-12.1-59.9-106.8-73.4-137.8
		c11.9-30.3,29-45.7,54.8-49.7c1.5,2.7,2.5,4.9,2.4,6.7c0,1-0.7,6.6-11.3,23c-17.7,27.4-10.8,46.5-7,53.4
		c4.8,8.8,12.8,14.3,20.8,14.3c0.6,0,1.2-0.1,1.9-0.1C396.5,513.7,408.4,546.2,412.7,559.8L412.7,559.8z"/>
</g>
</svg>
