<?xml version="1.0" encoding="utf-8"?>
<!-- Generator: Adobe Illustrator 24.2.3, SVG Export Plug-In . SVG Version: 6.00 Build 0)  -->
<svg version="1.1" id="Layer_1" xmlns="http://www.w3.org/2000/svg" xmlns:xlink="http://www.w3.org/1999/xlink" x="0px" y="0px"
	 viewBox="0 0 700 700" style="enable-background:new 0 0 700 700;" xml:space="preserve">
<style type="text/css">
	.st0{fill:#FFFFFF;stroke:#FFFFFF;stroke-width:10;stroke-miterlimit:10;}
</style>
<path d="M656.6,699H42.2c-23.4,0-42.3-18.9-42.3-42.2V42.4C-0.1,19,18.8,0.1,42.2,0.1h614.4c23.3,0,42.3,18.9,42.3,42.3v614.4
	C698.8,680.1,679.9,699,656.6,699z"/>
<g>
	<path class="st0" d="M534,180.9c-1.1-5.7-6.8-9.4-12.5-8.3c-16.4,3.2-28.6,9.1-36.7,14.1c-5.6-10.7-13.1-20.9-23.3-30.1
		c-4.3-3.9-11-3.5-14.9,0.9c-3.8,4.3-3.5,11,0.9,14.9c28.5,25.4,36.2,64.4,23.9,122.4c-8,38.4-7.7,57.8-7.4,71.9
		c0,3.1,0.1,5.9,0,8.6c-0.9,33.7-1,38-15.3,53.4l-1.1,1.1c-47.8,51.6-60.5,56.2-62.1,56.5c-1,0-4.6-1.7-7.3-6.9
		c-2.7-5.2-7.5-20,8-44.1c11.5-17.9,17-30.4,17.3-39.2c0.2-10-4.7-18-10-26.4c-6.8-11-15.3-24.6-18.1-49.1c-0.6-5.8-5.9-10-11.7-9.3
		c-5.8,0.6-10,5.9-9.3,11.7c2.3,20.1,7.9,34.2,13.6,44.9c-36.4,8.1-61.2,33-77.6,77.1c-17.4,46.9-68.9,166.1-83.1,183.1
		c-3.2,3.8-6.8,5.8-10.6,6c-4.2,0.2-7.8-1.6-8.5-2.3c-7.8-7.7,6.5-42.1,21.7-78.5c25.2-60.5,38.4-141.4,44.7-180.4
		c1.6-10.1,3-18,3.7-21.5l0.1-0.7c3.2-13.6,3.2-13.6,40.1-87.2l20.4-40.6C380.3,100.2,438.5,70.2,506.8,63c5.8-0.6,10-5.8,9.4-11.6
		c-0.6-5.8-5.8-10-11.6-9.4c-89.1,9.4-148.3,59.1-204.6,171.7l-20.4,40.6c-38,75.8-38,75.8-41.8,91.8l-0.1,0.7
		c-1,4.2-2.2,11.6-4.1,23c-6.2,38.1-19.1,117.5-43.3,175.6c-22.6,54.2-34.9,83.9-17,101.7c4.1,3.9,12.2,8.4,22.5,8.4
		c0.6,0,1.1,0,1.7,0c6.9-0.4,17.2-3,26-13.7c15.3-18.4,56.5-113.5,77.5-166c24.3,49.4,75,140.7,83.1,153.9
		c7.4,12.2,16.7,27.5,33.7,27.5c10,0,19.3-4.7,25.4-13.1c7.8-10.6,9.4-25.3,4.3-41.3c-6.7-21.3-22.7-63.3-40.8-104.7
		c11.8-8.5,29.2-24.4,56.4-53.8l1.1-1.1c19.7-21.2,20-32,20.9-67.3c0.1-3,0-6,0-9.5c-0.2-13.2-0.5-31.2,6.9-67.3
		c5.6-26.5,10-60.7,0.7-92.4c5.7-3.8,16.7-10,32.7-13.2C531.4,192.2,535.1,186.6,534,180.9L534,180.9z M427.6,608.9
		c3,9.3,2.5,17.5-1.2,22.6c-2.1,2.8-5.1,4.4-8.4,4.4c-3.8,0-7.8-4.3-15.5-17.3c-9-14.9-73.9-131.8-90.6-170.1
		c14.7-37.4,35.8-56.4,67.6-61.3c1.9,3.3,3.1,6,3,8.3c0,1.2-0.9,8.1-13.9,28.4c-21.8,33.8-13.3,57.4-8.6,65.9
		c5.9,10.9,15.8,17.6,25.7,17.6c0.7,0,1.5-0.1,2.3-0.1C407.6,552,422.3,592.1,427.6,608.9L427.6,608.9z"/>
</g>
</svg>
