<?xml version="1.0" encoding="utf-8"?>
<!-- Generator: Adobe Illustrator 24.2.3, SVG Export Plug-In . SVG Version: 6.00 Build 0)  -->
<svg version="1.1" id="Layer_1" xmlns="http://www.w3.org/2000/svg" xmlns:xlink="http://www.w3.org/1999/xlink" x="0px" y="0px"
	 viewBox="0 0 752 752" style="enable-background:new 0 0 752 752;" xml:space="preserve">
<style type="text/css">
	.st0{fill:#FFFFFF;}
</style>
<g>
	<path d="M37.6,0h676.8C735.2,0,752,20.8,752,37.6v676.8c0,20.8-16.8,37.6-37.6,37.6H37.6C16.8,752,0,731.2,0,714.4V37.6
		C0,16.8,16.8,0,37.6,0L37.6,0z"/>
	<g>
		<path class="st0" d="M191.2,142.3c41.6,0,75.3,33.6,75.3,75.3s-33.6,75.3-75.3,75.3S116,259.2,116,217.5
			C116,175.9,149.6,142.3,191.2,142.3 M191.2,121.1c-53.3,0-97.2,43.8-97.2,97.2s43.8,97.2,97.2,97.2s97.2-43.8,97.2-97.2
			C288.4,164.2,244.6,121.1,191.2,121.1L191.2,121.1z"/>
		<path class="st0" d="M477.7,42.9c-98.6,0-179,80.4-179,179c0,18.3,2.9,35.8,8,52.6c6.6-3.7,13.9-6.6,19.7-8.8
			c-4.4-13.9-6.6-28.5-6.6-43.8c0.7-87,71.6-157.1,157.8-157.1c87,0,157.1,70.9,157.1,157.1c0,86.2-70.2,157.1-157.1,157.1
			c-33.6,0-65-11-90.6-28.5c-2.9,2.9-5.1,5.1-7.3,8c33.6,23.4,53.3,26.3,81.8,30.7c2.9,0.7,5.1,2.2,6.6,4.4c0,0,2.2,2.9,5.1,7.3h3.7
			c98.6,0,179-80.4,179-179C655.9,123.3,577,42.9,477.7,42.9L477.7,42.9z"/>
		<path class="st0" d="M504,449.9c-11.7-25.6-34.3-54.8-35.1-56.3c-1.5-2.2-4.4-3.7-6.6-4.4c-28.5-4.4-48.2-7.3-81.8-30.7
			c11.7-13.9,30-28.5,47.5-38c10.2-5.1,21.9-8.8,32.9-11.7c21.9-5.8,49-13.9,42.4-40.9c-3.7-16.1-26.3-25.6-60.7-25.6
			c-3.7,0-7.3,0-11.7,0.7c-22.7,1.5-46,3.7-85.5,16.8c-26.3,8.8-79.7,32.1-95,60.7c-16.8,28.5-7.3,71.6,23.4,102.3
			c0,0,28.5,29.2,65.8,69.4c8.8,9.5,17.5,19,25.6,29.2c1.5,27,2.9,61.4,0,79.7c-2.9,16.8-17.5,57.7-5.8,67.2
			c8.8,6.6,34.3-7.3,54.8-30.7c1.5-1.5,2.2-2.9,3.7-4.4l4.4,19c4.4,28.5,24.1,50.4,44.6,50.4h1.5c25.6-1.5,43.1-48.2,49-91.3
			C518.6,604.8,530.3,507.6,504,449.9L504,449.9z M496.7,607c-5.8,46-22.7,71.6-28.5,72.3c-8.8,0-20.5-13.2-23.4-32.1v-0.7l-11-46
			c-11.7-49-46-90.6-77.5-125c-38-40.2-65.8-69.4-66.5-69.4c-23.4-23.4-32.1-57-19.7-76.7c9.5-17.5,49.7-40.2,82.6-50.4
			c37.3-11.7,58.5-13.9,80.4-15.3h10.2c26.3,0,38,6.6,39.5,9.5c1.5,5.8-2.2,8-27,15.3c-11.7,3.7-24.8,7.3-37.3,13.9
			c-24.1,12.4-48.2,33.6-61.4,53.3c-2.2,3.7-2.2,7.3-0.7,11c0,0,49.7,73.8,119.1,73.8c3.7,6.6,7.3,13.2,10.2,19
			C508.4,510.6,496.7,605.6,496.7,607L496.7,607z"/>
	</g>
</g>
</svg>
